<?xml version="1.0" standalone="no"?>
<!DOCTYPE svg PUBLIC "-//W3C//DTD SVG 20010904//EN"
 "http://www.w3.org/TR/2001/REC-SVG-20010904/DTD/svg10.dtd">
<svg version="1.0" xmlns="http://www.w3.org/2000/svg"
 width="128.000000pt" height="140.000000pt" viewBox="0 0 128.000000 140.000000"
 preserveAspectRatio="xMidYMid meet">

<g transform="translate(0.000000,140.000000) scale(0.100000,-0.100000)"
fill="#000000" stroke="none">
<path d="M535 1386 c-131 -33 -242 -125 -301 -251 -30 -61 -37 -90 -41 -159
-8 -119 15 -188 117 -350 45 -70 84 -134 86 -141 3 -8 -9 -14 -35 -19 -72 -11
-195 -54 -244 -85 -112 -72 -117 -193 -10 -263 227 -147 747 -159 1017 -24 94
48 126 86 126 150 0 54 -29 99 -87 137 -49 31 -172 74 -244 85 -23 4 -38 11
-36 18 3 6 41 70 86 141 91 144 121 225 121 319 -1 127 -44 229 -135 321 -114
115 -267 159 -420 121z m177 -77 c73 -16 123 -43 184 -100 74 -71 108 -149
108 -254 1 -44 -5 -98 -11 -120 -14 -45 -339 -560 -353 -560 -5 0 -83 116
-173 258 -130 202 -169 271 -182 322 -53 196 70 401 270 451 65 16 92 16 157
3z m-179 -1033 c43 -68 85 -127 93 -130 27 -10 43 6 116 121 40 64 76 120 79
125 16 24 256 -47 312 -93 43 -35 48 -66 15 -96 -147 -134 -683 -162 -936 -48
-109 49 -127 93 -62 146 48 39 200 89 295 98 6 1 45 -55 88 -123z"/>
<path d="M560 1134 c-137 -60 -165 -260 -48 -347 68 -50 136 -59 208 -26 84
38 120 93 120 184 0 149 -146 247 -280 189z m167 -108 c62 -67 35 -167 -52
-196 -111 -37 -203 101 -128 190 34 41 58 51 108 45 30 -3 48 -13 72 -39z"/>
</g>
</svg>
