<?xml version="1.0" standalone="no"?>
<!DOCTYPE svg PUBLIC "-//W3C//DTD SVG 20010904//EN"
 "http://www.w3.org/TR/2001/REC-SVG-20010904/DTD/svg10.dtd">
<svg version="1.0" xmlns="http://www.w3.org/2000/svg"
 width="136.000000pt" height="136.000000pt" viewBox="0 0 136.000000 136.000000"
 preserveAspectRatio="xMidYMid meet">

<g transform="translate(0.000000,136.000000) scale(0.100000,-0.100000)"
fill="#000000" stroke="none">
<path d="M535 1344 c-486 -109 -694 -682 -392 -1080 187 -246 539 -332 822
-200 395 185 517 682 252 1032 -81 107 -197 187 -332 230 -103 33 -249 41
-350 18z m316 -88 c148 -47 295 -169 361 -301 68 -135 86 -314 44 -448 -45
-142 -170 -292 -301 -359 -132 -68 -313 -86 -446 -44 -193 60 -355 227 -410
421 -18 65 -18 245 0 310 54 193 238 378 421 423 25 6 54 14 65 16 37 9 220
-3 266 -18z"/>
<path d="M505 1018 c-3 -7 -4 -164 -3 -348 l3 -335 38 -3 37 -3 0 110 0 111
99 0 c153 0 227 35 275 132 59 118 16 261 -97 321 -37 19 -61 22 -194 25 -122
3 -154 1 -158 -10z m319 -91 c48 -27 76 -77 76 -135 0 -58 -22 -101 -67 -132
-32 -22 -49 -25 -146 -28 l-109 -4 6 144 c3 78 6 151 6 161 0 15 11 17 98 17
82 0 103 -4 136 -23z"/>
</g>
</svg>
